<?xml version="1.0" encoding="UTF-8" standalone="no"?>
<!DOCTYPE svg PUBLIC "-//W3C//DTD SVG 1.1//EN" "http://www.w3.org/Graphics/SVG/1.1/DTD/svg11.dtd">
<svg width="100%" height="100%" viewBox="0 0 1334 753" version="1.1" xmlns="http://www.w3.org/2000/svg" xmlns:xlink="http://www.w3.org/1999/xlink" xml:space="preserve" xmlns:serif="http://www.serif.com/" style="fill-rule:evenodd;clip-rule:evenodd;stroke-linecap:round;stroke-linejoin:round;stroke-miterlimit:1.5;">
    <g id="Artboard1" transform="matrix(0.500065,0,0,0.602326,0,0)">
        <rect x="0" y="0" width="2666.67" height="1250" style="fill:none;"/>
        <g id="Layer1" transform="matrix(1.99974,0,0,1.66023,0,0)">
            <circle cx="878.863" cy="272.81" r="30.99" style="fill:rgb(102,102,102);"/>
            <g transform="matrix(1,0,0,1,-703.76,0)">
                <circle cx="878.863" cy="272.81" r="30.99" style="fill:rgb(102,102,102);"/>
            </g>
            <g transform="matrix(1,0,0,1,-123.959,0)">
                <circle cx="878.863" cy="272.81" r="30.99" style="fill:rgb(102,102,102);"/>
            </g>
            <g transform="matrix(1,0,0,1,-827.719,0)">
                <circle cx="878.863" cy="272.81" r="30.99" style="fill:rgb(102,102,102);"/>
            </g>
            <g transform="matrix(1,0,0,1,0,-111.757)">
                <circle cx="878.863" cy="272.81" r="30.99" style="fill:rgb(102,102,102);"/>
            </g>
            <g transform="matrix(1,0,0,1,-703.76,-111.757)">
                <circle cx="878.863" cy="272.81" r="30.99" style="fill:rgb(102,102,102);"/>
            </g>
            <g transform="matrix(1,0,0,1,-61.9794,-173.736)">
                <circle cx="878.863" cy="272.81" r="30.99" style="fill:rgb(102,102,102);"/>
            </g>
            <g transform="matrix(1,0,0,1,-765.739,-173.736)">
                <circle cx="878.863" cy="272.81" r="30.99" style="fill:rgb(102,102,102);"/>
            </g>
            <g transform="matrix(1,0,0,1,62.4716,-174.228)">
                <circle cx="878.863" cy="272.81" r="30.99" style="fill:rgb(102,102,102);"/>
            </g>
            <g transform="matrix(1,0,0,1,-641.288,-174.228)">
                <circle cx="878.863" cy="272.81" r="30.99" style="fill:rgb(102,102,102);"/>
            </g>
            <g transform="matrix(1,0,0,1,172.374,-174.228)">
                <circle cx="878.863" cy="272.81" r="30.99" style="fill:rgb(102,102,102);"/>
            </g>
            <g transform="matrix(1,0,0,1,-531.385,-174.228)">
                <circle cx="878.863" cy="272.81" r="30.99" style="fill:rgb(102,102,102);"/>
            </g>
            <g transform="matrix(1,0,0,1,234.354,-112.249)">
                <circle cx="878.863" cy="272.81" r="30.99" style="fill:rgb(102,102,102);"/>
            </g>
            <g transform="matrix(1,0,0,1,-469.406,-112.249)">
                <circle cx="878.863" cy="272.81" r="30.99" style="fill:rgb(102,102,102);"/>
            </g>
            <g transform="matrix(1,0,0,1,296.333,-174.228)">
                <circle cx="878.863" cy="272.81" r="30.99" style="fill:rgb(102,102,102);"/>
            </g>
            <g transform="matrix(1,0,0,1,-407.427,-174.228)">
                <circle cx="878.863" cy="272.81" r="30.99" style="fill:rgb(102,102,102);"/>
            </g>
            <g transform="matrix(1,0,0,1,234.354,3)">
                <circle cx="878.863" cy="272.81" r="30.99" style="fill:rgb(102,102,102);"/>
            </g>
            <g transform="matrix(1,0,0,1,-469.406,3)">
                <circle cx="878.863" cy="272.81" r="30.99" style="fill:rgb(102,102,102);"/>
            </g>
            <g transform="matrix(1,0,0,1,367.41,3)">
                <circle cx="878.863" cy="272.81" r="30.99" style="fill:rgb(102,102,102);"/>
            </g>
            <g transform="matrix(1,0,0,1,-336.35,3)">
                <circle cx="878.863" cy="272.81" r="30.99" style="fill:rgb(102,102,102);"/>
            </g>
            <g transform="matrix(1,0,0,1,117.584,119.77)">
                <circle cx="878.863" cy="272.81" r="30.99" style="fill:rgb(102,102,102);"/>
            </g>
            <g transform="matrix(1,0,0,1,-586.176,119.77)">
                <circle cx="878.863" cy="272.81" r="30.99" style="fill:rgb(102,102,102);"/>
            </g>
            <g transform="matrix(1,0,0,1,117.584,353.985)">
                <circle cx="878.863" cy="272.81" r="30.99" style="fill:rgb(102,102,102);"/>
            </g>
            <g transform="matrix(1,0,0,1,-586.176,353.985)">
                <circle cx="878.863" cy="272.81" r="30.99" style="fill:rgb(102,102,102);"/>
            </g>
        </g>
        <g transform="matrix(1.76156,0,0,1.57965,999.532,-664.507)">
            <path d="M562.839,1079.44L562.839,832.537L430.281,706.692L279.233,706.692L430.281,706.692L430.281,590.455" style="fill:none;stroke:rgb(102,102,102);stroke-width:27.27px;"/>
        </g>
        <g transform="matrix(1.45486,0,0,1.20737,1108.53,-473.349)">
            <path d="M446.069,614.189L364.054,529.891L446.069,614.189Z" style="fill:none;stroke:rgb(102,102,102);stroke-width:34.37px;"/>
        </g>
        <g transform="matrix(1.08515,0,0,1.10416,1273.45,-409.958)">
            <path d="M560.286,519.515L446.069,614.189" style="fill:none;stroke:rgb(102,102,102);stroke-width:41.19px;"/>
        </g>
        <g transform="matrix(-1.99974,0,0,1.66023,3118.17,-751.492)">
            <g transform="matrix(0.880893,0,0,0.951462,67.0378,52.3933)">
                <path d="M562.839,1079.44L562.839,832.537L430.281,706.692L279.233,706.692L430.281,706.692L430.281,590.455" style="fill:none;stroke:rgb(102,102,102);stroke-width:27.27px;"/>
            </g>
            <g transform="matrix(0.727525,0,0,0.727229,121.543,167.533)">
                <path d="M446.069,614.189L364.054,529.891L446.069,614.189Z" style="fill:none;stroke:rgb(102,102,102);stroke-width:34.37px;"/>
            </g>
            <g transform="matrix(0.542644,0,0,0.665062,204.012,205.715)">
                <path d="M560.286,519.515L446.069,614.189" style="fill:none;stroke:rgb(102,102,102);stroke-width:41.19px;"/>
            </g>
        </g>
        <g transform="matrix(1.99974,0,0,1.66023,-539.833,-751.492)">
            <g transform="matrix(0.880893,0,0,0.951462,67.0378,52.3933)">
                <path d="M562.839,1079.44L562.839,832.537L430.281,706.692L279.233,706.692L430.281,706.692L430.281,590.455" style="fill:none;stroke:rgb(102,102,102);stroke-width:27.27px;"/>
            </g>
            <g transform="matrix(0.727525,0,0,0.727229,121.543,167.533)">
                <path d="M446.069,614.189L364.054,529.891L446.069,614.189Z" style="fill:none;stroke:rgb(102,102,102);stroke-width:34.37px;"/>
            </g>
            <g transform="matrix(0.542644,0,0,0.665062,204.012,205.715)">
                <path d="M560.286,519.515L446.069,614.189" style="fill:none;stroke:rgb(102,102,102);stroke-width:41.19px;"/>
            </g>
        </g>
        <g transform="matrix(-1.99974,0,0,1.66023,1712.86,-751.492)">
            <g transform="matrix(0.880893,0,0,0.951462,67.0378,52.3933)">
                <path d="M562.839,1079.44L562.839,832.537L430.281,706.692L279.233,706.692L430.281,706.692L430.281,590.455" style="fill:none;stroke:rgb(102,102,102);stroke-width:27.27px;"/>
            </g>
            <g transform="matrix(0.727525,0,0,0.727229,121.543,167.533)">
                <path d="M446.069,614.189L364.054,529.891L446.069,614.189Z" style="fill:none;stroke:rgb(102,102,102);stroke-width:34.37px;"/>
            </g>
            <g transform="matrix(0.542644,0,0,0.665062,204.012,205.715)">
                <path d="M560.286,519.515L446.069,614.189" style="fill:none;stroke:rgb(102,102,102);stroke-width:41.19px;"/>
            </g>
        </g>
        <g transform="matrix(1.98842,0,0,1.48085,-1336.19,-610.73)">
            <path d="M1619.2,522.35L1729.2,522.94" style="fill:none;stroke:rgb(102,102,102);stroke-width:26.47px;"/>
        </g>
        <g transform="matrix(1.99974,0,0,1.66023,-1380.22,-652.504)">
            <text x="935.836px" y="1098.04px" style="font-family:'HelveticaLTStd-Roman', 'Helvetica LT Std', sans-serif;font-size:50px;">T<tspan x="960.386px 976.036px " y="1098.04px 1098.04px ">re</tspan>e</text>
        </g>
        <g transform="matrix(1.99974,0,0,1.66023,-98.9145,-652.504)">
            <text x="935.836px" y="1098.04px" style="font-family:'HelveticaLTStd-Roman', 'Helvetica LT Std', sans-serif;font-size:50px;">Not a tr<tspan x="1098.79px " y="1098.04px ">e</tspan>e</text>
        </g>
        <g>
            <g transform="matrix(1.99974,0,0,1.66023,-1354.51,-704.427)">
                <path d="M793.793,524.536L853.461,585.84" style="fill:none;stroke:rgb(255,0,0);stroke-width:8.33px;"/>
            </g>
            <g transform="matrix(1.99974,0,0,1.66023,-1354.51,-704.427)">
                <path d="M853.461,585.84L853.461,697.104" style="fill:none;stroke:rgb(255,0,0);stroke-width:8.33px;"/>
            </g>
            <g transform="matrix(1.99974,0,0,1.66023,-1354.51,-704.427)">
                <path d="M853.461,697.104L971.045,818.464" style="fill:none;stroke:rgb(255,0,0);stroke-width:8.33px;"/>
            </g>
            <g transform="matrix(1.99974,0,0,1.66023,-1354.51,-704.427)">
                <path d="M971.045,818.464L1086.65,697.104" style="fill:none;stroke:rgb(255,0,0);stroke-width:8.33px;"/>
            </g>
        </g>
        <g>
            <g transform="matrix(2.06677,0,0,1.7266,-6.41041,-735.921)">
                <path d="M793.793,524.536L853.461,585.84" style="fill:none;stroke:rgb(254,0,0);stroke-width:8.04px;"/>
            </g>
            <g transform="matrix(1.99974,0,0,1.59382,50.7964,-658.13)">
                <path d="M853.461,585.84L853.461,697.104" style="fill:none;stroke:rgb(254,0,0);stroke-width:8.5px;"/>
            </g>
            <g transform="matrix(1.99974,0,0,1.66023,50.7964,-704.427)">
                <path d="M853.461,697.104L971.045,818.464" style="fill:none;stroke:rgb(254,0,0);stroke-width:8.33px;"/>
            </g>
            <g transform="matrix(1.95985,0,0,1.61919,89.5293,-670.836)">
                <path d="M971.045,818.464L1086.65,697.104" style="fill:none;stroke:rgb(254,0,0);stroke-width:8.52px;"/>
            </g>
            <g transform="matrix(2.03409,0,0,1.66023,8.85559,-699.446)">
                <path d="M1086.65,697.104L1220.87,697.104" style="fill:none;stroke:rgb(254,0,0);stroke-width:8.26px;"/>
            </g>
        </g>
        <g transform="matrix(1.99974,0,0,1.66023,-1354.51,-704.427)">
            <path d="M1086.65,697.104L1220.87,697.104" style="fill:none;stroke:rgb(255,0,0);stroke-width:8.33px;"/>
        </g>
        <g transform="matrix(1.99974,0,0,1.66023,-1412.14,-724.851)">
            <text x="757.89px" y="510.137px" style="font-family:'HelveticaLTStd-Bold', 'Helvetica LT Std', sans-serif;font-weight:700;font-size:58.333px;">a</text>
        </g>
        <g transform="matrix(1.99974,0,0,1.66023,-15.2974,-709.909)">
            <text x="757.89px" y="510.137px" style="font-family:'HelveticaLTStd-Bold', 'Helvetica LT Std', sans-serif;font-weight:700;font-size:58.333px;">a</text>
        </g>
        <g transform="matrix(1.99974,0,0,1.66023,-1343.3,-676.612)">
            <text x="1253.33px" y="700.884px" style="font-family:'HelveticaLTStd-Bold', 'Helvetica LT Std', sans-serif;font-weight:700;font-size:58.333px;">b</text>
        </g>
        <g transform="matrix(1.99974,0,0,1.66023,62.2963,-676.612)">
            <text x="1253.33px" y="700.884px" style="font-family:'HelveticaLTStd-Bold', 'Helvetica LT Std', sans-serif;font-weight:700;font-size:58.333px;">b</text>
        </g>
        <g>
            <g transform="matrix(1.99974,0,0,1.66023,-1348.51,-709.407)">
                <path d="M1496.54,524.536L1556.21,585.84" style="fill:none;stroke:rgb(193,255,52);stroke-width:8.33px;"/>
            </g>
            <g transform="matrix(1.93625,0,0,1.60749,-1249.71,-678.512)">
                <path d="M1556.21,585.84L1619.2,522.876" style="fill:none;stroke:rgb(193,255,52);stroke-width:8.61px;"/>
            </g>
            <g transform="matrix(1.99974,0,0,1.66023,-1354.51,-704.427)">
                <path d="M1619.2,522.876L1728.58,522.35" style="fill:none;stroke:rgb(193,255,52);stroke-width:8.33px;"/>
            </g>
            <g transform="matrix(1.99974,0,0,1.66023,-1354.51,-704.427)">
                <path d="M1728.58,522.35L1790.56,585.84" style="fill:none;stroke:rgb(193,255,52);stroke-width:8.33px;"/>
            </g>
            <g transform="matrix(1.99974,0,0,1.66023,-1354.51,-704.427)">
                <path d="M1790.56,585.84L1790.56,692.035" style="fill:none;stroke:rgb(193,255,52);stroke-width:8.33px;"/>
            </g>
            <g transform="matrix(1.99974,0,0,1.66023,-1354.51,-704.427)">
                <path d="M1923.62,692.035L1790.56,692.035" style="fill:none;stroke:rgb(193,255,52);stroke-width:8.33px;"/>
            </g>
        </g>
    </g>
</svg>
